# xmcd
#
# Track frame offsets: 
#        150
#        12264
#        27378
#        45568
#        61194
#        77669
#        95636
#        118808
#        139371
#        151310
#
# Disc length: 2247 seconds
#
# Revision: 0
# Processed by: cddbd v1.5.2PL0 Copyright (c) Steve Scherf et al.
# Submitted via: ExactAudioCopy v1.0b4
#
DISCID=7f08c50a
DTITLE=Roland Johnson - Imagine This
DYEAR=2016
DGENRE=Blues
TTITLE0=Can't Get Enough
TTITLE1=Promised Land (feat. Renee Smith)
TTITLE2=Mother
TTITLE3=Keep on Dancin'
TTITLE4=The Things You Do
TTITLE5=Your's and Mine (feat. Renee Smith)
TTITLE6=Sweet Little Nothings
TTITLE7=Ain't That Loving You
TTITLE8=Imagine This
TTITLE9=Someone to Love
EXTD=
EXTT0=
EXTT1=
EXTT2=
EXTT3=
EXTT4=
EXTT5=
EXTT6=
EXTT7=
EXTT8=
EXTT9=
PLAYORDER=
